<mxfile host="app.diagrams.net" agent="Mozilla/5.0 (Windows NT 10.0; Win64; x64) AppleWebKit/537.36 (KHTML, like Gecko) Chrome/136.0.0.0 Safari/537.36" version="27.0.6">
  <diagram name="Page-1" id="ZhvGvRhB_2UcdjnHHpmG">
    <mxGraphModel dx="1426" dy="777" grid="1" gridSize="10" guides="1" tooltips="1" connect="1" arrows="1" fold="1" page="1" pageScale="1" pageWidth="850" pageHeight="1100" math="0" shadow="0">
      <root>
        <mxCell id="0" />
        <mxCell id="1" parent="0" />
        <mxCell id="EhQiE43x4k0j_HGtt51S-1" value="Khách hàng" style="swimlane;childLayout=stackLayout;horizontal=1;startSize=50;horizontalStack=0;rounded=1;fontSize=14;fontStyle=0;strokeWidth=2;resizeParent=0;resizeLast=1;shadow=0;dashed=0;align=center;arcSize=4;whiteSpace=wrap;html=1;" vertex="1" parent="1">
          <mxGeometry x="110" y="40" width="160" height="120" as="geometry" />
        </mxCell>
        <mxCell id="EhQiE43x4k0j_HGtt51S-2" value="id = 01" style="align=left;strokeColor=none;fillColor=none;spacingLeft=4;spacingRight=4;fontSize=12;verticalAlign=top;resizable=0;rotatable=0;part=1;html=1;whiteSpace=wrap;" vertex="1" parent="EhQiE43x4k0j_HGtt51S-1">
          <mxGeometry y="50" width="160" height="70" as="geometry" />
        </mxCell>
        <mxCell id="EhQiE43x4k0j_HGtt51S-3" value="Danh sách kết quả tìm kiếm" style="swimlane;childLayout=stackLayout;horizontal=1;startSize=50;horizontalStack=0;rounded=1;fontSize=14;fontStyle=0;strokeWidth=2;resizeParent=0;resizeLast=1;shadow=0;dashed=0;align=center;arcSize=4;whiteSpace=wrap;html=1;" vertex="1" parent="1">
          <mxGeometry x="425" y="20" width="180" height="150" as="geometry" />
        </mxCell>
        <mxCell id="EhQiE43x4k0j_HGtt51S-4" value="Tên sách&lt;div&gt;Tác giả&lt;/div&gt;&lt;div&gt;Danh mục = &#39;Sách tâm lý&#39;&lt;/div&gt;&lt;div&gt;Nhà xuất bản = &#39;Nhã Nam&#39;&lt;/div&gt;" style="align=left;strokeColor=none;fillColor=none;spacingLeft=4;spacingRight=4;fontSize=12;verticalAlign=top;resizable=0;rotatable=0;part=1;html=1;whiteSpace=wrap;" vertex="1" parent="EhQiE43x4k0j_HGtt51S-3">
          <mxGeometry y="50" width="180" height="100" as="geometry" />
        </mxCell>
        <mxCell id="EhQiE43x4k0j_HGtt51S-5" value="Sách" style="swimlane;childLayout=stackLayout;horizontal=1;startSize=50;horizontalStack=0;rounded=1;fontSize=14;fontStyle=0;strokeWidth=2;resizeParent=0;resizeLast=1;shadow=0;dashed=0;align=center;arcSize=4;whiteSpace=wrap;html=1;" vertex="1" parent="1">
          <mxGeometry x="130" y="290" width="190" height="160" as="geometry" />
        </mxCell>
        <mxCell id="EhQiE43x4k0j_HGtt51S-6" value="id_sách = 001&lt;div&gt;tên sách = &#39;Tâm lý học đám đông&#39;&lt;/div&gt;&lt;div&gt;tác giả = &#39;Gustave Le Bon&#39;&lt;/div&gt;&lt;div&gt;số lượng trong kho = 23&lt;/div&gt;" style="align=left;strokeColor=none;fillColor=none;spacingLeft=4;spacingRight=4;fontSize=12;verticalAlign=top;resizable=0;rotatable=0;part=1;html=1;whiteSpace=wrap;" vertex="1" parent="EhQiE43x4k0j_HGtt51S-5">
          <mxGeometry y="50" width="190" height="110" as="geometry" />
        </mxCell>
        <mxCell id="EhQiE43x4k0j_HGtt51S-7" value="Sách" style="swimlane;childLayout=stackLayout;horizontal=1;startSize=50;horizontalStack=0;rounded=1;fontSize=14;fontStyle=0;strokeWidth=2;resizeParent=0;resizeLast=1;shadow=0;dashed=0;align=center;arcSize=4;whiteSpace=wrap;html=1;" vertex="1" parent="1">
          <mxGeometry x="420" y="300" width="190" height="160" as="geometry" />
        </mxCell>
        <mxCell id="EhQiE43x4k0j_HGtt51S-8" value="id_sách = 019&lt;div&gt;tên sách = &#39;Sức mạnh của thói quen&#39;&lt;/div&gt;&lt;div&gt;tác giả = &#39;Chalres Duhigg&#39;&lt;/div&gt;&lt;div&gt;số lượng trong kho = 5&lt;/div&gt;" style="align=left;strokeColor=none;fillColor=none;spacingLeft=4;spacingRight=4;fontSize=12;verticalAlign=top;resizable=0;rotatable=0;part=1;html=1;whiteSpace=wrap;" vertex="1" parent="EhQiE43x4k0j_HGtt51S-7">
          <mxGeometry y="50" width="190" height="110" as="geometry" />
        </mxCell>
        <mxCell id="EhQiE43x4k0j_HGtt51S-9" value="Danh mục" style="swimlane;childLayout=stackLayout;horizontal=1;startSize=50;horizontalStack=0;rounded=1;fontSize=14;fontStyle=0;strokeWidth=2;resizeParent=0;resizeLast=1;shadow=0;dashed=0;align=center;arcSize=4;whiteSpace=wrap;html=1;" vertex="1" parent="1">
          <mxGeometry x="140" y="630" width="170" height="120" as="geometry" />
        </mxCell>
        <mxCell id="EhQiE43x4k0j_HGtt51S-10" value="id_danh mục = 01&lt;div&gt;tên danh mục = &#39;Sách tâm lý&#39;&lt;/div&gt;" style="align=left;strokeColor=none;fillColor=none;spacingLeft=4;spacingRight=4;fontSize=12;verticalAlign=top;resizable=0;rotatable=0;part=1;html=1;whiteSpace=wrap;" vertex="1" parent="EhQiE43x4k0j_HGtt51S-9">
          <mxGeometry y="50" width="170" height="70" as="geometry" />
        </mxCell>
        <mxCell id="EhQiE43x4k0j_HGtt51S-11" value="Danh mục" style="swimlane;childLayout=stackLayout;horizontal=1;startSize=50;horizontalStack=0;rounded=1;fontSize=14;fontStyle=0;strokeWidth=2;resizeParent=0;resizeLast=1;shadow=0;dashed=0;align=center;arcSize=4;whiteSpace=wrap;html=1;" vertex="1" parent="1">
          <mxGeometry x="410" y="630" width="190" height="120" as="geometry" />
        </mxCell>
        <mxCell id="EhQiE43x4k0j_HGtt51S-12" value="id_danh mục = 13&lt;div&gt;tên danh mục = &#39;Sách khoa học&#39;&lt;/div&gt;" style="align=left;strokeColor=none;fillColor=none;spacingLeft=4;spacingRight=4;fontSize=12;verticalAlign=top;resizable=0;rotatable=0;part=1;html=1;whiteSpace=wrap;" vertex="1" parent="EhQiE43x4k0j_HGtt51S-11">
          <mxGeometry y="50" width="190" height="70" as="geometry" />
        </mxCell>
        <mxCell id="EhQiE43x4k0j_HGtt51S-13" value="Sách" style="swimlane;childLayout=stackLayout;horizontal=1;startSize=50;horizontalStack=0;rounded=1;fontSize=14;fontStyle=0;strokeWidth=2;resizeParent=0;resizeLast=1;shadow=0;dashed=0;align=center;arcSize=4;whiteSpace=wrap;html=1;" vertex="1" parent="1">
          <mxGeometry x="700" y="320" width="160" height="160" as="geometry" />
        </mxCell>
        <mxCell id="EhQiE43x4k0j_HGtt51S-14" value="id_sách = 064&lt;div&gt;tên sách = &#39;Phi lý trí&#39;&lt;/div&gt;&lt;div&gt;tác giả = &#39;Dan Ariely&#39;&lt;/div&gt;&lt;div&gt;số lượng trong kho = 12&lt;/div&gt;" style="align=left;strokeColor=none;fillColor=none;spacingLeft=4;spacingRight=4;fontSize=12;verticalAlign=top;resizable=0;rotatable=0;part=1;html=1;whiteSpace=wrap;" vertex="1" parent="EhQiE43x4k0j_HGtt51S-13">
          <mxGeometry y="50" width="160" height="110" as="geometry" />
        </mxCell>
        <mxCell id="EhQiE43x4k0j_HGtt51S-15" value="Danh mục" style="swimlane;childLayout=stackLayout;horizontal=1;startSize=50;horizontalStack=0;rounded=1;fontSize=14;fontStyle=0;strokeWidth=2;resizeParent=0;resizeLast=1;shadow=0;dashed=0;align=center;arcSize=4;whiteSpace=wrap;html=1;" vertex="1" parent="1">
          <mxGeometry x="685" y="610" width="190" height="120" as="geometry" />
        </mxCell>
        <mxCell id="EhQiE43x4k0j_HGtt51S-16" value="id_danh mục = 82&lt;div&gt;tên danh mục = &#39;Sách ngoại văn&#39;&lt;/div&gt;" style="align=left;strokeColor=none;fillColor=none;spacingLeft=4;spacingRight=4;fontSize=12;verticalAlign=top;resizable=0;rotatable=0;part=1;html=1;whiteSpace=wrap;" vertex="1" parent="EhQiE43x4k0j_HGtt51S-15">
          <mxGeometry y="50" width="190" height="70" as="geometry" />
        </mxCell>
        <mxCell id="EhQiE43x4k0j_HGtt51S-20" value="" style="endArrow=none;html=1;rounded=0;exitX=1;exitY=0.414;exitDx=0;exitDy=0;exitPerimeter=0;entryX=0;entryY=0.5;entryDx=0;entryDy=0;" edge="1" parent="1" source="EhQiE43x4k0j_HGtt51S-2" target="EhQiE43x4k0j_HGtt51S-4">
          <mxGeometry width="50" height="50" relative="1" as="geometry">
            <mxPoint x="400" y="430" as="sourcePoint" />
            <mxPoint x="450" y="380" as="targetPoint" />
          </mxGeometry>
        </mxCell>
        <mxCell id="EhQiE43x4k0j_HGtt51S-42" value="Nhập tìm kiếm" style="edgeLabel;html=1;align=center;verticalAlign=middle;resizable=0;points=[];" vertex="1" connectable="0" parent="EhQiE43x4k0j_HGtt51S-20">
          <mxGeometry x="-0.2003" y="3" relative="1" as="geometry">
            <mxPoint y="-6" as="offset" />
          </mxGeometry>
        </mxCell>
        <mxCell id="EhQiE43x4k0j_HGtt51S-21" value="" style="endArrow=none;html=1;rounded=0;entryX=0.5;entryY=1;entryDx=0;entryDy=0;" edge="1" parent="1" source="EhQiE43x4k0j_HGtt51S-7" target="EhQiE43x4k0j_HGtt51S-4">
          <mxGeometry width="50" height="50" relative="1" as="geometry">
            <mxPoint x="400" y="430" as="sourcePoint" />
            <mxPoint x="450" y="380" as="targetPoint" />
          </mxGeometry>
        </mxCell>
        <mxCell id="EhQiE43x4k0j_HGtt51S-45" value="Chứa" style="edgeLabel;html=1;align=center;verticalAlign=middle;resizable=0;points=[];" vertex="1" connectable="0" parent="EhQiE43x4k0j_HGtt51S-21">
          <mxGeometry x="-0.2769" y="1" relative="1" as="geometry">
            <mxPoint as="offset" />
          </mxGeometry>
        </mxCell>
        <mxCell id="EhQiE43x4k0j_HGtt51S-22" value="" style="endArrow=none;html=1;rounded=0;exitX=0.416;exitY=0.006;exitDx=0;exitDy=0;exitPerimeter=0;" edge="1" parent="1" source="EhQiE43x4k0j_HGtt51S-5">
          <mxGeometry width="50" height="50" relative="1" as="geometry">
            <mxPoint x="400" y="430" as="sourcePoint" />
            <mxPoint x="520" y="230" as="targetPoint" />
            <Array as="points">
              <mxPoint x="209" y="230" />
            </Array>
          </mxGeometry>
        </mxCell>
        <mxCell id="EhQiE43x4k0j_HGtt51S-43" value="Có chứa" style="edgeLabel;html=1;align=center;verticalAlign=middle;resizable=0;points=[];" vertex="1" connectable="0" parent="EhQiE43x4k0j_HGtt51S-22">
          <mxGeometry x="0.172" y="-2" relative="1" as="geometry">
            <mxPoint y="-12" as="offset" />
          </mxGeometry>
        </mxCell>
        <mxCell id="EhQiE43x4k0j_HGtt51S-23" value="" style="endArrow=none;html=1;rounded=0;exitX=0.5;exitY=0;exitDx=0;exitDy=0;" edge="1" parent="1" source="EhQiE43x4k0j_HGtt51S-13">
          <mxGeometry width="50" height="50" relative="1" as="geometry">
            <mxPoint x="400" y="430" as="sourcePoint" />
            <mxPoint x="520" y="230" as="targetPoint" />
            <Array as="points">
              <mxPoint x="780" y="230" />
            </Array>
          </mxGeometry>
        </mxCell>
        <mxCell id="EhQiE43x4k0j_HGtt51S-44" value="Có chứa" style="edgeLabel;html=1;align=center;verticalAlign=middle;resizable=0;points=[];" vertex="1" connectable="0" parent="EhQiE43x4k0j_HGtt51S-23">
          <mxGeometry x="0.2686" y="-1" relative="1" as="geometry">
            <mxPoint y="-9" as="offset" />
          </mxGeometry>
        </mxCell>
        <mxCell id="EhQiE43x4k0j_HGtt51S-28" value="" style="endArrow=classic;html=1;rounded=0;exitX=0.5;exitY=1;exitDx=0;exitDy=0;entryX=0.5;entryY=0;entryDx=0;entryDy=0;" edge="1" parent="1" source="EhQiE43x4k0j_HGtt51S-8" target="EhQiE43x4k0j_HGtt51S-9">
          <mxGeometry width="50" height="50" relative="1" as="geometry">
            <mxPoint x="400" y="430" as="sourcePoint" />
            <mxPoint x="450" y="380" as="targetPoint" />
            <Array as="points">
              <mxPoint x="515" y="500" />
              <mxPoint x="225" y="500" />
            </Array>
          </mxGeometry>
        </mxCell>
        <mxCell id="EhQiE43x4k0j_HGtt51S-37" value="Thuộc" style="edgeLabel;html=1;align=center;verticalAlign=middle;resizable=0;points=[];" vertex="1" connectable="0" parent="EhQiE43x4k0j_HGtt51S-28">
          <mxGeometry x="-0.1304" y="1" relative="1" as="geometry">
            <mxPoint x="5" y="-11" as="offset" />
          </mxGeometry>
        </mxCell>
        <mxCell id="EhQiE43x4k0j_HGtt51S-29" value="" style="endArrow=classic;html=1;rounded=0;exitX=0.5;exitY=1;exitDx=0;exitDy=0;entryX=0.5;entryY=0;entryDx=0;entryDy=0;" edge="1" parent="1" source="EhQiE43x4k0j_HGtt51S-6" target="EhQiE43x4k0j_HGtt51S-9">
          <mxGeometry width="50" height="50" relative="1" as="geometry">
            <mxPoint x="400" y="430" as="sourcePoint" />
            <mxPoint x="450" y="380" as="targetPoint" />
            <Array as="points" />
          </mxGeometry>
        </mxCell>
        <mxCell id="EhQiE43x4k0j_HGtt51S-35" value="Thuộc" style="edgeLabel;html=1;align=center;verticalAlign=middle;resizable=0;points=[];" vertex="1" connectable="0" parent="EhQiE43x4k0j_HGtt51S-29">
          <mxGeometry x="-0.1889" y="-1" relative="1" as="geometry">
            <mxPoint x="-24" y="-43" as="offset" />
          </mxGeometry>
        </mxCell>
        <mxCell id="EhQiE43x4k0j_HGtt51S-31" value="" style="endArrow=classic;html=1;rounded=0;exitX=0.5;exitY=1;exitDx=0;exitDy=0;entryX=0.553;entryY=-0.008;entryDx=0;entryDy=0;entryPerimeter=0;" edge="1" parent="1" source="EhQiE43x4k0j_HGtt51S-8" target="EhQiE43x4k0j_HGtt51S-11">
          <mxGeometry width="50" height="50" relative="1" as="geometry">
            <mxPoint x="400" y="430" as="sourcePoint" />
            <mxPoint x="450" y="380" as="targetPoint" />
          </mxGeometry>
        </mxCell>
        <mxCell id="EhQiE43x4k0j_HGtt51S-36" value="Thuộc" style="edgeLabel;html=1;align=center;verticalAlign=middle;resizable=0;points=[];" vertex="1" connectable="0" parent="EhQiE43x4k0j_HGtt51S-31">
          <mxGeometry x="0.0057" relative="1" as="geometry">
            <mxPoint x="-25" y="-65" as="offset" />
          </mxGeometry>
        </mxCell>
        <mxCell id="EhQiE43x4k0j_HGtt51S-32" value="" style="endArrow=classic;html=1;rounded=0;entryX=0.558;entryY=-0.025;entryDx=0;entryDy=0;entryPerimeter=0;exitX=0.5;exitY=1;exitDx=0;exitDy=0;" edge="1" parent="1" source="EhQiE43x4k0j_HGtt51S-14" target="EhQiE43x4k0j_HGtt51S-11">
          <mxGeometry width="50" height="50" relative="1" as="geometry">
            <mxPoint x="790" y="460" as="sourcePoint" />
            <mxPoint x="450" y="380" as="targetPoint" />
            <Array as="points">
              <mxPoint x="780" y="520" />
              <mxPoint x="516" y="520" />
            </Array>
          </mxGeometry>
        </mxCell>
        <mxCell id="EhQiE43x4k0j_HGtt51S-40" value="Thuộc" style="edgeLabel;html=1;align=center;verticalAlign=middle;resizable=0;points=[];" vertex="1" connectable="0" parent="EhQiE43x4k0j_HGtt51S-32">
          <mxGeometry x="-0.4745" y="1" relative="1" as="geometry">
            <mxPoint x="-52" y="-11" as="offset" />
          </mxGeometry>
        </mxCell>
        <mxCell id="EhQiE43x4k0j_HGtt51S-33" value="" style="endArrow=classic;html=1;rounded=0;exitX=0.5;exitY=1;exitDx=0;exitDy=0;entryX=0.5;entryY=0;entryDx=0;entryDy=0;" edge="1" parent="1" source="EhQiE43x4k0j_HGtt51S-14" target="EhQiE43x4k0j_HGtt51S-9">
          <mxGeometry width="50" height="50" relative="1" as="geometry">
            <mxPoint x="400" y="430" as="sourcePoint" />
            <mxPoint x="450" y="380" as="targetPoint" />
            <Array as="points">
              <mxPoint x="780" y="550" />
              <mxPoint x="225" y="550" />
            </Array>
          </mxGeometry>
        </mxCell>
        <mxCell id="EhQiE43x4k0j_HGtt51S-39" value="Thuộc" style="edgeLabel;html=1;align=center;verticalAlign=middle;resizable=0;points=[];" vertex="1" connectable="0" parent="EhQiE43x4k0j_HGtt51S-33">
          <mxGeometry x="0.0695" y="-1" relative="1" as="geometry">
            <mxPoint x="187" y="-9" as="offset" />
          </mxGeometry>
        </mxCell>
        <mxCell id="EhQiE43x4k0j_HGtt51S-34" value="" style="endArrow=classic;html=1;rounded=0;exitX=0.5;exitY=1;exitDx=0;exitDy=0;entryX=0.5;entryY=0;entryDx=0;entryDy=0;" edge="1" parent="1" target="EhQiE43x4k0j_HGtt51S-15">
          <mxGeometry width="50" height="50" relative="1" as="geometry">
            <mxPoint x="779.58" y="480" as="sourcePoint" />
            <mxPoint x="779.5000000000001" y="599.96" as="targetPoint" />
          </mxGeometry>
        </mxCell>
        <mxCell id="EhQiE43x4k0j_HGtt51S-41" value="Thuộc" style="edgeLabel;html=1;align=center;verticalAlign=middle;resizable=0;points=[];" vertex="1" connectable="0" parent="EhQiE43x4k0j_HGtt51S-34">
          <mxGeometry x="0.4768" y="-2" relative="1" as="geometry">
            <mxPoint x="22" y="-76" as="offset" />
          </mxGeometry>
        </mxCell>
      </root>
    </mxGraphModel>
  </diagram>
</mxfile>
